<?xml version="1.0" encoding="UTF-8"?>
<svg xmlns="http://www.w3.org/2000/svg" viewBox="0 0 438.74 438.74">
  <g id="Capa_2">
    <rect width="438.74" height="438.74" rx="43.75" ry="43.75" style="fill: #0fa976;"/>
  </g>
  <g id="Capa_3">
    <g>
      <path d="M75.57,146.91c3.41,0,10.14,1.21,18.1,9,.73.72,1.97.2,2-.82.1-4.31,1.2-12.1,7.59-15.2,1.08-.52.86-2.09-.32-2.25-3.43-.49-8.22.48-9.91,8.82-.17.85-1.2,1.22-1.88.68-3.35-2.66-11.35-7.93-16.45-2.18-.67.76-.13,1.96.88,1.96Z" style="fill: #1b3441;"/>
      <path d="M219.38,279.38c-31.56.83-56.48,10.97-56.48,10.97l35.87,42.44h41.22l35.87-42.44s-24.92-10.14-56.48-10.97Z" style="fill: #1b3441;"/>
      <path d="M122.52,240.11c26.35,0,50.07-24.43,55.24-51.69,2.6-13.68,2.28-27.79-9.03-35.9-.07-.05-.15-.11-.22-.16-53.91-38.11-54.66,41.77-84.13,34.83-3.41-.8-6.45-1.13-9.15-1.07-11.08.25-14.11,12.86-8.32,22.31,11.73,19.12,30.27,31.68,55.62,31.68Z" style="fill: #1b3441;"/>
      <path d="M319.28,240.11c34.66,0,58.42-29.21,58.42-65.24,0-7.38-1.18-14.47-3.35-21.08-1.53-4.65-4.93-8.47-9.37-10.38-31.98-13.77-39.31,26.89-54.41,35.45-9.96,5.65-14.93-5.01-31.74-1.76-3.64.7-6.8,1.57-9.55,2.52-.07.02-.14.05-.21.07-10,3.58-8.88,15.5-3.65,24.88,11.7,21,29.56,35.53,53.86,35.53Z" style="fill: #1b3441;"/>
      <g>
        <g>
          <circle cx="120.17" cy="180.06" r="74.11" style="fill: none; stroke: #1b3441; stroke-miterlimit: 10; stroke-width: 12px;"/>
          <circle cx="318.57" cy="180.06" r="74.11" style="fill: none; stroke: #1b3441; stroke-miterlimit: 10; stroke-width: 12px;"/>
        </g>
        <path d="M186.82,212.49s29.49-35.6,65.09,0" style="fill: none; stroke: #1b3441; stroke-miterlimit: 10; stroke-width: 12px;"/>
      </g>
    </g>
  </g>
</svg>